<?xml version="1.0" encoding="iso-8859-1"?>
<!-- Generator: Adobe Illustrator 17.0.0, SVG Export Plug-In . SVG Version: 6.00 Build 0)  -->
<!DOCTYPE svg PUBLIC "-//W3C//DTD SVG 1.1//EN" "http://www.w3.org/Graphics/SVG/1.1/DTD/svg11.dtd">
<svg version="1.1" id="Layer_1" xmlns="http://www.w3.org/2000/svg" xmlns:xlink="http://www.w3.org/1999/xlink" x="0px" y="0px"
	 width="42.643px" height="65.014px" viewBox="0 0 42.643 65.014" style="enable-background:new 0 0 42.643 65.014;"
	 xml:space="preserve">
<g>
	<g>
		<path style="fill:#222734;" d="M10.206,58.955l-3.275-0.959l-2.449,3.17l1.763,2.918l-0.72,0.93L0,55.752l0.598-0.773
			l10.345,3.025L10.206,58.955z M5.882,57.644L2.72,56.67c-0.402-0.121-0.877-0.291-1.426-0.514
			c0.285,0.347,0.578,0.754,0.879,1.223l1.731,2.823L5.882,57.644z"/>
	</g>
	<g>
		<path style="fill:#222734;" d="M13.624,52.486l-0.036,0.051c0.316,0.867,0.173,1.727-0.432,2.577
			c-0.568,0.798-1.283,1.226-2.145,1.281s-1.795-0.274-2.803-0.99C7.203,54.689,6.58,53.91,6.34,53.068s-0.078-1.66,0.488-2.455
			c0.589-0.828,1.342-1.25,2.257-1.263l0.052-0.073l-0.468-0.273l-0.445-0.283l-2.484-1.767l0.657-0.925l8.668,6.165l-0.534,0.752
			L13.624,52.486z M12.465,54.447c0.448-0.632,0.603-1.213,0.461-1.74c-0.141-0.528-0.595-1.064-1.359-1.608l-0.195-0.139
			c-0.865-0.615-1.585-0.911-2.159-0.887c-0.574,0.025-1.086,0.354-1.534,0.985c-0.386,0.541-0.471,1.107-0.254,1.693
			c0.217,0.588,0.709,1.156,1.479,1.703c0.779,0.555,1.471,0.83,2.07,0.826C11.573,55.279,12.071,55,12.465,54.447z"/>
	</g>
	<g>
		<path style="fill:#222734;" d="M17.302,48.85l-7.822-1.742l0.668-1.016l4.6,1.094c1.067,0.267,1.75,0.458,2.043,0.574l0.03-0.045
			c-0.175-0.174-0.505-0.582-0.992-1.223c-0.487-0.639-1.542-2.049-3.163-4.227l0.668-1.018l4.697,6.493L17.302,48.85z"/>
	</g>
	<g>
		<path style="fill:#222734;" d="M21.866,41.909c-0.578,0.945-1.32,1.515-2.23,1.71s-1.876-0.02-2.898-0.645
			c-1.031-0.629-1.695-1.382-1.992-2.26s-0.184-1.745,0.339-2.602c0.489-0.801,1.14-1.274,1.952-1.419
			c0.812-0.146,1.649,0.046,2.513,0.573l0.612,0.373l-2.688,4.406c0.763,0.439,1.448,0.597,2.057,0.475
			c0.608-0.123,1.112-0.511,1.511-1.164c0.421-0.688,0.692-1.457,0.815-2.306l0.863,0.527c-0.062,0.433-0.151,0.821-0.276,1.165
			C22.321,41.089,22.129,41.478,21.866,41.909z M15.888,38.621c-0.313,0.513-0.396,1.024-0.248,1.534
			c0.148,0.509,0.502,0.972,1.06,1.388l2.041-3.344c-0.611-0.373-1.161-0.523-1.652-0.447
			C16.597,37.825,16.196,38.114,15.888,38.621z"/>
	</g>
	<g>
		<path style="fill:#222734;" d="M19.115,31.218c0.164-0.289,0.334-0.534,0.514-0.737l0.837,0.657
			c-0.212,0.235-0.378,0.456-0.495,0.662c-0.299,0.527-0.342,1.099-0.126,1.716c0.215,0.618,0.642,1.109,1.278,1.472l3.494,1.986
			l-0.561,0.986l-6.513-3.703l0.463-0.813l1.271,0.572l0.027-0.047c-0.287-0.483-0.447-0.96-0.484-1.432
			C18.783,32.066,18.883,31.627,19.115,31.218z"/>
	</g>
	<g>
		<path style="fill:#222734;" d="M27.525,30.021c0.094-0.177,0.173-0.355,0.234-0.533c0.061-0.179,0.104-0.325,0.127-0.436
			l0.767,0.409c-0.006,0.136-0.048,0.319-0.127,0.549c-0.078,0.229-0.162,0.428-0.252,0.597c-0.682,1.279-1.695,1.559-3.043,0.841
			l-3.934-2.096l-0.505,0.947l-0.482-0.257l0.089-1.168l-1.188-1.174l0.309-0.579l1.532,0.816l1.022-1.919l0.778,0.415l-1.022,1.918
			l3.892,2.073c0.398,0.212,0.755,0.28,1.067,0.205C27.104,30.553,27.349,30.351,27.525,30.021z"/>
	</g>
	<g>
		<path style="fill:#222734;" d="M20.893,23.856c-0.232-0.118-0.374-0.261-0.423-0.429c-0.05-0.168-0.032-0.338,0.054-0.509
			c0.083-0.163,0.209-0.275,0.379-0.337c0.169-0.062,0.368-0.036,0.596,0.08c0.227,0.115,0.367,0.261,0.42,0.436
			c0.052,0.173,0.036,0.342-0.047,0.505c-0.086,0.171-0.214,0.285-0.383,0.342C21.317,24.001,21.119,23.972,20.893,23.856z
			 M29.941,27.064l-0.513,1.012l-6.683-3.388l0.514-1.012L29.941,27.064z"/>
	</g>
	<g>
		<path style="fill:#222734;" d="M31.194,19.805c0.629,0.301,1.004,0.767,1.121,1.398c0.115,0.632-0.027,1.372-0.432,2.218
			c-0.43,0.896-0.904,1.528-1.428,1.894l-0.951-0.454c0.32-0.246,0.617-0.533,0.889-0.86c0.271-0.327,0.492-0.663,0.656-1.008
			c0.256-0.535,0.367-0.986,0.334-1.356c-0.033-0.369-0.225-0.637-0.574-0.804c-0.264-0.125-0.543-0.12-0.84,0.019
			c-0.295,0.139-0.729,0.479-1.301,1.019c-0.535,0.518-0.953,0.867-1.254,1.048c-0.303,0.182-0.594,0.284-0.879,0.308
			c-0.283,0.023-0.58-0.039-0.889-0.186c-0.551-0.263-0.879-0.694-0.982-1.295c-0.104-0.601,0.029-1.291,0.402-2.072
			c0.348-0.728,0.836-1.369,1.465-1.922l0.658,0.762c-0.604,0.545-1.037,1.093-1.301,1.644c-0.232,0.486-0.33,0.887-0.295,1.208
			c0.033,0.319,0.184,0.543,0.451,0.67c0.18,0.086,0.357,0.113,0.529,0.082s0.363-0.123,0.578-0.272
			c0.213-0.15,0.568-0.465,1.064-0.946c0.676-0.663,1.229-1.064,1.658-1.204C30.308,19.553,30.747,19.59,31.194,19.805z"/>
	</g>
	<g>
		<path style="fill:#222734;" d="M25.016,15.295c-0.236-0.106-0.384-0.242-0.442-0.409c-0.058-0.166-0.047-0.336,0.031-0.51
			c0.074-0.167,0.195-0.285,0.361-0.354c0.167-0.07,0.367-0.053,0.6,0.051s0.379,0.243,0.438,0.415
			c0.062,0.172,0.054,0.341-0.021,0.507c-0.079,0.174-0.2,0.294-0.368,0.359C25.448,15.42,25.248,15.4,25.016,15.295z
			 M34.206,18.076l-0.465,1.035l-6.834-3.07l0.465-1.035L34.206,18.076z"/>
	</g>
	<g>
		<path style="fill:#222734;" d="M37.096,11.308l-4.475-1.862c-0.563-0.234-1.038-0.281-1.423-0.141
			c-0.385,0.142-0.69,0.485-0.918,1.032c-0.302,0.725-0.327,1.336-0.075,1.835c0.251,0.499,0.826,0.937,1.728,1.312l3.629,1.51
			l-0.437,1.048l-6.917-2.879l0.354-0.852l1.018,0.224l0.021-0.051c-0.252-0.356-0.391-0.768-0.417-1.232
			c-0.026-0.464,0.06-0.936,0.258-1.411c0.347-0.833,0.809-1.375,1.386-1.629c0.576-0.254,1.308-0.197,2.19,0.171l4.513,1.878
			L37.096,11.308z"/>
	</g>
	<g>
		<path style="fill:#222734;" d="M33.394,0l0.672,0.251l-0.331,1.357c0.193-0.064,0.429-0.097,0.705-0.102
			c0.276-0.004,0.566,0.051,0.869,0.164c0.688,0.256,1.149,0.697,1.384,1.319c0.234,0.622,0.198,1.344-0.107,2.163
			c-0.078,0.21-0.169,0.399-0.271,0.57c0.069,0.542,0.286,0.88,0.649,1.016c0.192,0.072,0.363,0.046,0.514-0.078
			c0.151-0.124,0.299-0.377,0.442-0.762l0.464-1.242c0.284-0.761,0.662-1.284,1.134-1.573c0.473-0.287,1.015-0.317,1.625-0.089
			c0.776,0.29,1.252,0.823,1.428,1.599c0.175,0.775,0.039,1.76-0.407,2.956c-0.343,0.917-0.778,1.562-1.305,1.932
			s-1.104,0.438-1.727,0.206c-0.427-0.16-0.745-0.434-0.954-0.824c-0.211-0.39-0.277-0.853-0.204-1.39
			c-0.148,0.149-0.33,0.253-0.546,0.311c-0.217,0.058-0.438,0.045-0.664-0.039c-0.256-0.096-0.455-0.249-0.596-0.457
			c-0.142-0.208-0.247-0.493-0.316-0.854c-0.284,0.307-0.648,0.508-1.093,0.602C34.313,7.131,33.861,7.092,33.4,6.92
			c-0.769-0.287-1.275-0.739-1.52-1.355c-0.244-0.616-0.208-1.348,0.108-2.192c0.137-0.367,0.303-0.683,0.498-0.945L33.394,0z
			 M33.767,5.86c0.492,0.183,0.915,0.183,1.27-0.001c0.355-0.183,0.627-0.522,0.812-1.018c0.388-1.037,0.076-1.745-0.931-2.121
			c-1.055-0.394-1.777-0.065-2.17,0.985c-0.187,0.5-0.195,0.934-0.027,1.303C32.889,5.379,33.237,5.662,33.767,5.86z M39.501,8.658
			c0.38,0.142,0.728,0.089,1.044-0.157s0.586-0.669,0.809-1.267c0.333-0.892,0.446-1.604,0.341-2.132
			c-0.107-0.528-0.39-0.878-0.846-1.049c-0.38-0.142-0.688-0.123-0.923,0.058c-0.235,0.18-0.474,0.594-0.716,1.243l-0.476,1.274
			c-0.181,0.481-0.205,0.9-0.075,1.256C38.789,8.239,39.07,8.497,39.501,8.658z"/>
	</g>
</g>
</svg>
