<?xml version="1.0" encoding="iso-8859-1"?>
<!-- Generator: Adobe Illustrator 17.0.0, SVG Export Plug-In . SVG Version: 6.00 Build 0)  -->
<!DOCTYPE svg PUBLIC "-//W3C//DTD SVG 1.1//EN" "http://www.w3.org/Graphics/SVG/1.1/DTD/svg11.dtd">
<svg version="1.1" id="Layer_1" xmlns="http://www.w3.org/2000/svg" xmlns:xlink="http://www.w3.org/1999/xlink" x="0px" y="0px"
	 width="650px" height="750px" viewBox="0 0 650 750" style="enable-background:new 0 0 650 750;" xml:space="preserve">
<g>
	<g>
		<defs>
			<path id="SVGID_1_" d="M325,568.555c-129.235,0-234-104.765-234-234v122.89c0,129.234,104.765,234,234,234s234-104.766,234-234
				v-122.89C559,463.79,454.235,568.555,325,568.555"/>
		</defs>
		<clipPath id="SVGID_2_">
			<use xlink:href="#SVGID_1_"  style="overflow:visible;"/>
		</clipPath>
		
			<linearGradient id="SVGID_3_" gradientUnits="userSpaceOnUse" x1="19.9979" y1="770.9551" x2="20.9979" y2="770.9551" gradientTransform="matrix(468 0 0 -468 -9268 361320)">
			<stop  offset="0" style="stop-color:#90939A"/>
			<stop  offset="0.0371" style="stop-color:#999BA1"/>
			<stop  offset="0.1362" style="stop-color:#ADAEB3"/>
			<stop  offset="0.2417" style="stop-color:#BCBDC0"/>
			<stop  offset="0.3569" style="stop-color:#C5C6C9"/>
			<stop  offset="0.5" style="stop-color:#C8C9CC"/>
			<stop  offset="0.6431" style="stop-color:#C5C6C9"/>
			<stop  offset="0.7583" style="stop-color:#BCBDC0"/>
			<stop  offset="0.8638" style="stop-color:#ADAEB3"/>
			<stop  offset="0.9629" style="stop-color:#999BA1"/>
			<stop  offset="1" style="stop-color:#90939A"/>
		</linearGradient>
		<rect x="91" y="334.555" style="clip-path:url(#SVGID_2_);fill:url(#SVGID_3_);" width="468" height="356.89"/>
	</g>
	<path style="fill:#FFFFFF;" d="M269.969,617.15c-1.839,2.315-4.144,3.439-7.043,3.439c-1.565,0-2.992-0.352-4.245-1.041
		c-1.246-0.684-2.239-1.661-2.954-2.9c-0.718-1.245-1.081-2.588-1.081-3.997c0-2.194,0.767-4.004,2.343-5.538
		c1.557-1.517,3.548-2.285,5.917-2.285c3.011,0,5.317,1.117,7.055,3.425l0.287,0.382l2.956-1.834l-0.265-0.442
		c-0.652-1.095-1.458-2.009-2.398-2.718c-0.931-0.707-2.075-1.285-3.396-1.717c-1.323-0.435-2.713-0.657-4.132-0.657
		c-2.259,0-4.336,0.508-6.172,1.512c-1.841,1.005-3.306,2.426-4.358,4.22c-1.053,1.793-1.587,3.76-1.587,5.851
		c0,3.117,1.144,5.796,3.396,7.972c2.247,2.17,5.111,3.267,8.51,3.267c2.203,0,4.198-0.434,5.935-1.286
		c1.741-0.857,3.152-2.086,4.189-3.648l0.292-0.439l-2.95-1.941L269.969,617.15z"/>
	<path style="fill:#FFFFFF;" d="M345.339,601.389c-3.325,0-6.116,1.225-8.297,3.637c-1.975,2.186-2.976,4.799-2.976,7.773
		c0,2.999,1.057,5.656,3.144,7.894c2.096,2.253,4.828,3.397,8.129,3.397c3.285,0,6.014-1.144,8.109-3.397
		c2.087-2.238,3.145-4.895,3.145-7.894c0-2.988-1.002-5.607-2.979-7.792C351.434,602.606,348.65,601.389,345.339,601.389
		 M351.847,616.766c-0.672,1.196-1.589,2.134-2.729,2.784c-1.142,0.65-2.418,0.98-3.788,0.98c-1.373,0-2.648-0.328-3.789-0.98
		c-1.143-0.652-2.062-1.588-2.73-2.784c-0.676-1.207-1.017-2.524-1.017-3.912c0-2.19,0.728-4.003,2.226-5.546
		c1.496-1.535,3.232-2.282,5.31-2.282c2.062,0,3.797,0.747,5.299,2.287c1.503,1.538,2.237,3.354,2.237,5.541
		C352.866,614.242,352.524,615.559,351.847,616.766"/>
	<path style="fill:#FFFFFF;" d="M373.018,601.37h-2.54l-0.511,0.019v0.019c-1.898,0.108-3.639,0.59-5.177,1.434
		c-1.791,0.977-3.219,2.358-4.242,4.105c-0.818,1.392-1.311,2.926-1.474,4.609v12.015h3.632v-11.473l-0.003-0.398
		c0.158-1.797,0.908-3.361,2.228-4.646c1.505-1.463,3.426-2.209,5.711-2.22h2.376V601.37z"/>
	<polygon style="fill:#FFFFFF;" points="333.531,601.823 329.419,601.823 329.419,594.927 325.81,594.927 325.81,601.823 
		321.694,601.823 321.694,605.083 325.81,605.083 325.81,623.57 329.419,623.57 329.419,605.083 333.531,605.083 	"/>
	<polygon style="fill:#FFFFFF;" points="300.564,616.175 300.564,618.604 300.573,618.604 300.573,616.162 	"/>
	<path style="fill:#FFFFFF;" d="M317.794,604.427c-2.168-2.092-4.925-3.161-8.192-3.179v-0.002c-0.914-0.01-2.563,0.042-3.935,0.515
		c-0.004,0.002-0.004,0.002-0.007,0.002c-0.583,0.164-1.398,0.428-2.292,0.917l-0.007-0.004l-0.2,0.108
		c-0.055,0.032-0.111,0.069-0.165,0.103l-0.069,0.047c-0.083,0.05-0.166,0.104-0.254,0.162c-0.136,0.091-0.273,0.183-0.439,0.308
		c-0.03,0.023-0.061,0.042-0.087,0.061c-0.116,0.088-0.211,0.17-0.309,0.251l-0.065,0.051c-0.529,0.426-0.941,0.814-1.285,1.207
		c-2.052,2.195-3.944,5.912-5.614,8.628c-1.248,2.029-2.327,3.783-3.146,4.627c-1.638,1.631-3.672,2.455-6.049,2.455
		c-1.522,0-2.911-0.342-4.129-1.013c-1.212-0.666-2.179-1.614-2.874-2.82c-0.698-1.21-1.052-2.521-1.052-3.889
		c0-2.133,0.744-3.896,2.279-5.386c1.436-1.399,3.248-2.142,5.407-2.217h5.408v1.379v5.193v0.557v0.509h0.011h0.985l2.496-3.83
		v-2.429v-3.422v-0.919v-0.51h-0.012h-0.529h-7.906c-2.198,0-4.217,0.496-6.004,1.47c-1.788,0.98-3.215,2.361-4.239,4.108
		c-1.026,1.742-1.542,3.658-1.542,5.69c0,3.031,1.111,5.64,3.302,7.756c2.188,2.111,4.971,3.179,8.28,3.179
		c0.692,0,1.365-0.052,2.02-0.145c0.039-0.003,0.08-0.007,0.124-0.011c1.168-0.141,2.163-0.463,3.004-0.821l0.081-0.028l0.202-0.096
		c0.049-0.023,0.096-0.046,0.144-0.069c0.065-0.026,0.131-0.052,0.195-0.081c0.172-0.086,0.342-0.177,0.511-0.271
		c0.006-0.003,0.014-0.005,0.019-0.01l-0.001-0.002c0.463-0.261,0.908-0.559,1.328-0.887l0.069-0.062
		c1.449-1.145,2.48-2.782,5.236-7.156l0.052-0.078c1.641-2.562,3.541-6.036,5.191-7.622l0.073-0.068l0.176-0.16
		c1.506-1.241,3.327-1.868,5.413-1.868c1.52,0,2.908,0.34,4.129,1.01c1.211,0.666,2.177,1.617,2.873,2.824
		c0.697,1.209,1.051,2.517,1.051,3.887c0,2.132-0.744,3.894-2.279,5.387c-1.435,1.398-3.251,2.142-5.412,2.217h-5.707v-1.375h0.002
		v-5.194v-0.557v-0.509h-0.01h-0.985l-0.007,0.011l-2.479,3.807v2.442v12.323h3.451v-7.48h5.288c2.199,0,4.218-0.493,6.002-1.469
		c1.788-0.978,3.215-2.357,4.241-4.107c1.023-1.739,1.541-3.656,1.541-5.69C321.096,609.147,319.985,606.539,317.794,604.427"/>
	<path style="fill:#FFFFFF;" d="M392.697,601.887h-8.741c-2.197,0-4.216,0.496-6.003,1.47c-1.789,0.98-3.215,2.363-4.241,4.108
		c-1.023,1.742-1.541,3.658-1.541,5.691c0,3.029,1.111,5.639,3.304,7.755c2.186,2.11,4.972,3.178,8.278,3.178
		c0.832,0,1.643-0.079,2.433-0.219l-0.005-3.492c-0.733,0.196-1.501,0.306-2.307,0.306c-1.523,0-2.912-0.343-4.129-1.013
		c-1.215-0.664-2.179-1.614-2.873-2.821c-0.7-1.209-1.054-2.521-1.054-3.888c0-2.133,0.746-3.896,2.278-5.387
		c1.434-1.398,3.248-2.143,5.408-2.216h5.712v7.896v8.988v0.557v0.507h0.011h0.983l2.497-3.829v-6.223v-10.858L392.697,601.887z"/>
	<path style="fill:#FFFFFF;" d="M397.071,602.237h-0.781v2.162h-0.412v-2.162h-0.781v-0.334h1.974V602.237z M400.324,604.399h-0.412
		v-2.084H399.9l-0.818,2.084h-0.26l-0.818-2.084h-0.012v2.084h-0.412v-2.496h0.636l0.745,1.896l0.733-1.896h0.63V604.399z"/>
</g>
<rect style="fill:none;" width="612" height="792"/>
</svg>
