<?xml version="1.0" encoding="iso-8859-1"?>
<!-- Generator: Adobe Illustrator 17.0.0, SVG Export Plug-In . SVG Version: 6.00 Build 0)  -->
<!DOCTYPE svg PUBLIC "-//W3C//DTD SVG 1.1//EN" "http://www.w3.org/Graphics/SVG/1.1/DTD/svg11.dtd">
<svg version="1.1" id="Layer_1" xmlns="http://www.w3.org/2000/svg" xmlns:xlink="http://www.w3.org/1999/xlink" x="0px" y="0px"
	 width="370px" height="370px" viewBox="140 190.555 370 370" style="enable-background:new 140 190.555 370 370;"
	 xml:space="preserve">
<g>
	<path style="fill:#923D97;stroke:#FFFFFF;stroke-miterlimit:10;" d="M140.5,375.555c0,33.612,8.993,65.122,24.696,92.263
		l42.095-24.304c-11.567-19.991-18.191-43.201-18.191-67.959c0-17.513,3.315-34.251,9.348-49.624
		c2.716,1.354,5.768,2.134,9.009,2.134c11.184,0,20.25-9.066,20.25-20.25c0-7.042-3.599-13.24-9.054-16.868
		c24.899-31.255,63.281-51.292,106.347-51.292v-48.6C223.103,191.055,140.5,273.658,140.5,375.555"/>
	<path style="fill:#3F76BB;stroke:#FFFFFF;stroke-miterlimit:10;" d="M325,191.055v48.6c43.034,0,81.389,20.007,106.29,51.222
		c-5.33,3.647-8.831,9.772-8.831,16.719c0,11.183,9.066,20.25,20.25,20.25c3.158,0,6.135-0.744,8.798-2.033
		c6.063,15.405,9.393,32.185,9.393,49.742c0,24.758-6.624,47.968-18.191,67.959l42.095,24.304
		c15.703-27.141,24.696-58.651,24.696-92.263C509.5,273.658,426.897,191.055,325,191.055"/>
	<path style="fill:#B6CC34;stroke:#FFFFFF;stroke-miterlimit:10;" d="M442.709,443.514c-20.296,35.077-55.824,60.226-97.535,66.435
		c-0.773-10.478-9.499-18.744-20.174-18.744c-10.676,0-19.401,8.266-20.174,18.744c-41.712-6.209-77.239-31.358-97.535-66.435
		l-42.095,24.303c31.903,55.139,91.519,92.238,159.804,92.238s127.9-37.099,159.804-92.238L442.709,443.514z"/>
</g>
</svg>
