<?xml version="1.0" encoding="iso-8859-1"?>
<!-- Generator: Adobe Illustrator 17.0.0, SVG Export Plug-In . SVG Version: 6.00 Build 0)  -->
<!DOCTYPE svg PUBLIC "-//W3C//DTD SVG 1.1//EN" "http://www.w3.org/Graphics/SVG/1.1/DTD/svg11.dtd">
<svg version="1.1" id="Layer_1" xmlns="http://www.w3.org/2000/svg" xmlns:xlink="http://www.w3.org/1999/xlink" x="0px" y="0px"
	 width="29.018px" height="34.698px" viewBox="0 0 29.018 34.698" style="enable-background:new 0 0 29.018 34.698;"
	 xml:space="preserve">
<g>
	
		<circle style="fill:none;stroke:#3F76BB;stroke-width:1.199;stroke-linecap:round;stroke-linejoin:round;stroke-miterlimit:10;" cx="17.631" cy="11.386" r="10.787"/>
	<path style="fill:none;stroke:#3F76BB;stroke-width:1.199;stroke-linecap:round;stroke-linejoin:round;stroke-miterlimit:10;" d="
		M10.313,19.309l-9.48,12.88c-0.392,0.534-0.278,1.284,0.255,1.676c0.214,0.158,0.463,0.233,0.71,0.233
		c0.368,0,0.731-0.168,0.966-0.488l9.479-12.879"/>
	<path style="fill:none;stroke:#3F76BB;stroke-width:0.599;stroke-linecap:round;stroke-linejoin:round;stroke-miterlimit:10;" d="
		M10.004,11.388c0.001,4.212,3.415,7.626,7.627,7.626c0.009,0,0.017-0.001,0.025-0.001c0-4.212-3.415-7.626-7.627-7.626
		C10.021,11.387,10.012,11.388,10.004,11.388z"/>
	<path style="fill:none;stroke:#3F76BB;stroke-width:0.599;stroke-linecap:round;stroke-linejoin:round;stroke-miterlimit:10;" d="
		M17.656,19.013c4.201-0.014,7.602-3.422,7.602-7.626c0-1.273-0.316-2.471-0.867-3.526C20.387,9.972,17.656,14.173,17.656,19.013z"
		/>
	
		<line style="fill:none;stroke:#3F76BB;stroke-width:0.599;stroke-linecap:round;stroke-linejoin:round;stroke-miterlimit:10;" x1="17.631" y1="19.014" x2="22.629" y2="12.381"/>
	
		<line style="fill:none;stroke:#3F76BB;stroke-width:0.599;stroke-linecap:round;stroke-linejoin:round;stroke-miterlimit:10;" x1="17.631" y1="19.014" x2="13.318" y2="14.701"/>
</g>
</svg>
