<?xml version="1.0" encoding="iso-8859-1"?>
<!-- Generator: Adobe Illustrator 17.0.0, SVG Export Plug-In . SVG Version: 6.00 Build 0)  -->
<!DOCTYPE svg PUBLIC "-//W3C//DTD SVG 1.1//EN" "http://www.w3.org/Graphics/SVG/1.1/DTD/svg11.dtd">
<svg version="1.1" id="Layer_1" xmlns="http://www.w3.org/2000/svg" xmlns:xlink="http://www.w3.org/1999/xlink" x="0px" y="0px"
	 width="29.008px" height="34.732px" viewBox="0 0 29.008 34.732" style="enable-background:new 0 0 29.008 34.732;"
	 xml:space="preserve">
<g>
	<path style="fill:none;stroke:#3F76BB;stroke-width:1.199;stroke-linecap:round;stroke-linejoin:round;stroke-miterlimit:10;" d="
		M7.953,20.167c1.44,0.515,3.024,0.8,4.686,0.8c5.247,0,9.707-2.84,11.356-6.802c2.694,1.868,4.414,4.704,4.414,7.881
		c0,2.1-0.752,4.051-2.039,5.672l2.039,6.414l-7.518-2.647c-1.396,0.478-2.921,0.745-4.52,0.745c-6.649,0-12.039-4.56-12.039-10.184
		c0-0.206,0.009-0.409,0.023-0.612L7.953,20.167z"/>
	
		<line style="fill:none;stroke:#3F76BB;stroke-width:0.599;stroke-linecap:round;stroke-linejoin:round;stroke-miterlimit:10;" x1="24.471" y1="22.434" x2="8.268" y2="22.434"/>
	
		<line style="fill:none;stroke:#3F76BB;stroke-width:0.599;stroke-linecap:round;stroke-linejoin:round;stroke-miterlimit:10;" x1="23.571" y1="19.733" x2="18.384" y2="19.733"/>
	
		<line style="fill:none;stroke:#3F76BB;stroke-width:0.599;stroke-linecap:round;stroke-linejoin:round;stroke-miterlimit:10;" x1="23.571" y1="25.135" x2="9.169" y2="25.135"/>
	
		<line style="fill:none;stroke:#3F76BB;stroke-width:0.599;stroke-linecap:round;stroke-linejoin:round;stroke-miterlimit:10;" x1="19.97" y1="27.836" x2="12.771" y2="27.836"/>
	<path style="fill:none;stroke:#3F76BB;stroke-width:1.199;stroke-linecap:round;stroke-linejoin:round;stroke-miterlimit:10;" d="
		M12.639,0.6C5.989,0.6,0.6,5.159,0.6,10.784c0,2.086,0.743,4.024,2.014,5.638L0.6,22.757l7.353-2.589
		c1.44,0.515,3.024,0.8,4.686,0.8c6.649,0,12.039-4.56,12.039-10.184C24.677,5.159,19.287,0.6,12.639,0.6z"/>
	<path style="fill:none;stroke:#3F76BB;stroke-width:0.599;stroke-linecap:round;stroke-linejoin:round;stroke-miterlimit:10;" d="
		M6.17,10.416h2.67c0.959,0,2.168-1.604,2.462-2.462c0.295-0.858,0.305-3.172,0.763-3.48c0.459-0.309,1.857,0.209,1.797,1.807
		c-0.059,1.599-0.232,2.573-0.232,2.573h4.815c0.876,0,0.632,1.204,0.632,1.204s-0.914,5.048-1.184,5.521
		c-0.27,0.474-4.376,0.474-5.27,0.474c-0.893,0-2.678-0.711-3.783-0.711H6.17"/>
	<path style="fill:none;stroke:#3F76BB;stroke-width:0.599;stroke-linecap:round;stroke-linejoin:round;stroke-miterlimit:10;" d="
		M14.393,16.026c-0.997,0-1.43-0.606-1.33-1.838c0.1-1.232,0.366-3.879,0.366-3.879h4.093"/>
</g>
</svg>
