<?xml version="1.0" encoding="iso-8859-1"?>
<!-- Generator: Adobe Illustrator 17.0.0, SVG Export Plug-In . SVG Version: 6.00 Build 0)  -->
<!DOCTYPE svg PUBLIC "-//W3C//DTD SVG 1.1//EN" "http://www.w3.org/Graphics/SVG/1.1/DTD/svg11.dtd">
<svg version="1.1" id="Layer_1" xmlns="http://www.w3.org/2000/svg" xmlns:xlink="http://www.w3.org/1999/xlink" x="0px" y="0px"
	 width="469px" height="469px" viewBox="90.5 79.055 469 469" style="enable-background:new 90.5 79.055 469 469;"
	 xml:space="preserve">
<g>
	<path style="fill:#E9EDF4;" d="M140.5,313.555c0-33.612,8.993-65.122,24.696-92.263l-42.874-24.753
		C102.405,230.962,91,270.925,91,313.555c0,129.235,104.765,234,234,234v-49.5C223.103,498.055,140.5,415.452,140.5,313.555z"/>
	<path style="fill:#FFFFFF;" d="M140.5,313.555h0.5c0-33.523,8.968-64.945,24.629-92.013l0.251-0.433l-43.74-25.253l-0.25,0.432
		C101.93,230.785,90.5,270.836,90.5,313.555c0,129.511,104.989,234.5,234.5,234.5h0.5v-50.5H325
		c-50.812,0-96.809-20.594-130.108-53.892C161.594,410.364,141,364.367,141,313.555H140.5H140c0,102.173,82.827,185,185,185v-0.5
		h-0.5v49.5h0.5v-0.5c-64.481,0-122.853-26.135-165.11-68.39c-42.256-42.257-68.39-100.628-68.39-165.11
		c0-42.54,11.38-82.416,31.255-116.766l-0.433-0.25l-0.25,0.433l42.874,24.753l0.25-0.433l-0.433-0.25
		C149.018,248.256,140,279.854,140,313.555H140.5z"/>
	<path style="fill:#E9EDF4;" d="M484.804,221.292c15.704,27.141,24.696,58.651,24.696,92.263c0,101.896-82.603,184.5-184.5,184.5
		v49.5c129.235,0,234-104.766,234-234c0-42.63-11.405-82.594-31.322-117.016L484.804,221.292z"/>
	<path style="fill:#FFFFFF;" d="M484.804,221.292l-0.433,0.25C500.032,248.611,509,280.033,509,313.555
		c0,50.811-20.594,96.808-53.892,130.107c-33.299,33.298-79.296,53.892-130.108,53.893h-0.5v50.5h0.5
		c129.511,0,234.5-104.99,234.5-234.5c0-42.719-11.43-82.771-31.389-117.266l-0.25-0.432l-43.74,25.253l0.251,0.433L484.804,221.292
		l0.25,0.433l42.874-24.753l-0.25-0.433l-0.433,0.25c19.874,34.349,31.255,74.225,31.255,116.766
		c0,64.48-26.135,122.852-68.39,165.109c-42.257,42.256-100.628,68.391-165.11,68.391v0.5h0.5v-49.5H325v0.5
		c102.173,0,185-82.828,185-185c0-33.701-9.017-65.299-24.763-92.513L484.804,221.292l0.25,0.433L484.804,221.292z"/>
	<path style="fill:#E9EDF4;" d="M325,79.555c-86.605,0-162.215,47.052-202.678,116.984l42.874,24.753
		c31.903-55.138,91.519-92.237,159.804-92.237s127.901,37.099,159.804,92.237l42.874-24.753
		C487.215,126.607,411.605,79.555,325,79.555"/>
	<path style="fill:#FFFFFF;" d="M325,79.055c-86.789,0-162.563,47.153-203.111,117.234l-0.251,0.433l43.74,25.253l0.25-0.432
		c31.818-54.989,91.27-91.988,159.371-91.987c68.101,0,127.553,36.998,159.371,91.987l0.25,0.432l43.74-25.253l-0.251-0.433
		C487.563,126.208,411.789,79.055,325,79.055v1c86.421,0,161.867,46.951,202.245,116.734l0.433-0.25l-0.25-0.433l-42.874,24.753
		l0.25,0.433l0.433-0.25c-31.988-55.287-91.767-92.486-160.237-92.487c-68.469,0-128.249,37.2-160.237,92.487l0.433,0.25l0.25-0.433
		l-42.874-24.753l-0.25,0.433l0.433,0.25C163.133,127.006,238.579,80.055,325,80.055V79.055L325,79.055z"/>
</g>
</svg>
