<?xml version="1.0" encoding="iso-8859-1"?>
<!-- Generator: Adobe Illustrator 17.0.0, SVG Export Plug-In . SVG Version: 6.00 Build 0)  -->
<!DOCTYPE svg PUBLIC "-//W3C//DTD SVG 1.1//EN" "http://www.w3.org/Graphics/SVG/1.1/DTD/svg11.dtd">
<svg version="1.1" id="Layer_1" xmlns="http://www.w3.org/2000/svg" xmlns:xlink="http://www.w3.org/1999/xlink" x="0px" y="0px"
	 width="272.8px" height="272.799px" viewBox="188.6 239.156 272.8 272.799"
	 style="enable-background:new 188.6 239.156 272.8 272.799;" xml:space="preserve">
<g>
	<path style="fill:#E9ECF3;stroke:#FFFFFF;stroke-miterlimit:10;" d="M460.9,375.555c0-24.758-6.624-47.968-18.191-67.959
		l-42.894,24.764c7.355,12.71,11.585,27.454,11.585,43.195c0,47.717-38.683,86.4-86.4,86.4v49.5
		C400.055,511.455,460.9,450.61,460.9,375.555"/>
	<path style="fill:#E9ECF3;stroke:#FFFFFF;stroke-miterlimit:10;" d="M238.6,375.555c0-15.741,4.23-30.485,11.585-43.195
		l-42.894-24.764c-11.567,19.991-18.191,43.201-18.191,67.959c0,75.055,60.845,135.9,135.9,135.9v-49.5
		C277.283,461.955,238.6,423.272,238.6,375.555"/>
	<path style="fill:#E9ECF3;stroke:#FFFFFF;stroke-miterlimit:10;" d="M250.184,332.361c14.94-25.82,42.839-43.205,74.815-43.205
		c31.977,0,59.876,17.385,74.816,43.205l42.894-24.765c-23.5-40.614-67.412-67.94-117.71-67.94
		c-50.297,0-94.209,27.326-117.709,67.94L250.184,332.361z"/>
</g>
</svg>
