<?xml version="1.0" encoding="iso-8859-1"?>
<!-- Generator: Adobe Illustrator 17.0.0, SVG Export Plug-In . SVG Version: 6.00 Build 0)  -->
<!DOCTYPE svg PUBLIC "-//W3C//DTD SVG 1.1//EN" "http://www.w3.org/Graphics/SVG/1.1/DTD/svg11.dtd">
<svg version="1.1" id="Layer_1" xmlns="http://www.w3.org/2000/svg" xmlns:xlink="http://www.w3.org/1999/xlink" x="0px" y="0px"
	 width="162.365px" height="31.158px" viewBox="0 0 162.365 31.158" style="enable-background:new 0 0 162.365 31.158;"
	 xml:space="preserve">
<g>
	<g>
		<path style="fill:#222734;" d="M9.821,21.182c0.306,0.824,0.245,1.579-0.183,2.262c-0.427,0.684-1.153,1.216-2.179,1.595
			c-1.111,0.412-2.019,0.586-2.724,0.521l-0.389-1.052c0.443,0.021,0.91-0.007,1.398-0.081c0.487-0.074,0.953-0.192,1.398-0.357
			c0.727-0.27,1.222-0.61,1.487-1.021c0.266-0.412,0.307-0.863,0.125-1.355c-0.12-0.324-0.284-0.566-0.491-0.726
			c-0.208-0.159-0.496-0.269-0.866-0.331c-0.371-0.063-0.909-0.089-1.615-0.08c-0.987,0.012-1.747-0.127-2.279-0.416
			s-0.926-0.777-1.181-1.465c-0.268-0.723-0.21-1.398,0.175-2.026c0.384-0.628,1.022-1.108,1.916-1.439
			c0.932-0.346,1.852-0.492,2.761-0.44l0.012,1.075c-0.894-0.038-1.706,0.078-2.437,0.349c-0.577,0.214-0.982,0.505-1.215,0.873
			c-0.233,0.368-0.269,0.772-0.104,1.212c0.119,0.325,0.278,0.569,0.475,0.732c0.196,0.162,0.469,0.277,0.817,0.346
			c0.348,0.067,0.854,0.098,1.517,0.09c1.113-0.014,1.929,0.112,2.447,0.377C9.205,20.088,9.584,20.542,9.821,21.182z"/>
	</g>
	<g>
		<path style="fill:#222734;" d="M16.033,22.06c-1.054,0.342-1.989,0.291-2.807-0.152s-1.411-1.234-1.781-2.375
			c-0.374-1.147-0.388-2.152-0.043-3.013c0.346-0.859,0.996-1.445,1.949-1.755c0.893-0.29,1.695-0.227,2.406,0.191
			c0.711,0.419,1.223,1.109,1.535,2.07l0.222,0.684l-4.908,1.596c0.294,0.829,0.712,1.396,1.254,1.699
			c0.542,0.303,1.177,0.336,1.905,0.099c0.767-0.249,1.473-0.656,2.119-1.221l0.313,0.962c-0.328,0.289-0.65,0.524-0.968,0.706
			C16.912,21.734,16.514,21.903,16.033,22.06z M13.633,15.673c-0.572,0.186-0.968,0.521-1.188,1.004
			c-0.219,0.484-0.251,1.064-0.098,1.743l3.726-1.212c-0.222-0.68-0.543-1.152-0.964-1.415S14.195,15.49,13.633,15.673z"/>
	</g>
	<g>
		<path style="fill:#222734;" d="M25.178,19.192l-0.507-0.965l-0.053,0.015c-0.232,0.553-0.505,0.96-0.816,1.221
			c-0.313,0.262-0.736,0.467-1.271,0.618c-0.715,0.201-1.328,0.175-1.837-0.079c-0.51-0.255-0.86-0.722-1.052-1.401
			c-0.411-1.457,0.539-2.548,2.849-3.274l1.212-0.384l-0.125-0.447c-0.16-0.566-0.399-0.95-0.719-1.151s-0.746-0.226-1.282-0.075
			c-0.601,0.17-1.229,0.545-1.884,1.128l-0.571-0.742c0.301-0.293,0.647-0.554,1.04-0.782c0.393-0.229,0.802-0.403,1.227-0.523
			c0.859-0.242,1.551-0.231,2.073,0.034c0.522,0.265,0.901,0.818,1.139,1.66l1.387,4.922L25.178,19.192z M22.494,19.118
			c0.68-0.192,1.161-0.529,1.444-1.011c0.283-0.482,0.33-1.06,0.142-1.73l-0.184-0.651l-1.08,0.354
			c-0.859,0.276-1.447,0.587-1.764,0.935s-0.404,0.773-0.262,1.277c0.111,0.396,0.314,0.662,0.612,0.801
			S22.064,19.239,22.494,19.118z"/>
	</g>
	<g>
		<path style="fill:#222734;" d="M29.945,10.113c0.322-0.08,0.62-0.125,0.89-0.135l0.098,1.061
			c-0.317,0.008-0.591,0.039-0.821,0.096c-0.589,0.145-1.033,0.507-1.335,1.088c-0.301,0.58-0.363,1.227-0.188,1.939l0.958,3.904
			l-1.103,0.271l-1.785-7.276l0.909-0.224l0.457,1.316l0.053-0.013c0.154-0.54,0.39-0.985,0.708-1.335
			C29.103,10.456,29.489,10.224,29.945,10.113z"/>
	</g>
	<g>
		<path style="fill:#222734;" d="M37.074,16.486c-1.061,0.226-1.951,0.074-2.672-0.455s-1.208-1.392-1.463-2.586
			c-0.261-1.226-0.167-2.235,0.281-3.03s1.219-1.308,2.311-1.54c0.352-0.075,0.712-0.112,1.081-0.112
			c0.368,0.001,0.663,0.031,0.886,0.091l-0.141,1.016c-0.266-0.046-0.551-0.071-0.854-0.074c-0.304-0.002-0.567,0.02-0.79,0.067
			c-1.488,0.316-2.031,1.424-1.627,3.323c0.191,0.9,0.521,1.553,0.986,1.957c0.466,0.404,1.055,0.53,1.768,0.378
			c0.611-0.13,1.209-0.395,1.795-0.794l0.21,0.983C38.409,16.069,37.819,16.328,37.074,16.486z"/>
	</g>
	<g>
		<path style="fill:#222734;" d="M45.986,14.687l-0.824-4.776c-0.104-0.602-0.318-1.027-0.644-1.276s-0.779-0.323-1.363-0.222
			c-0.777,0.134-1.308,0.443-1.592,0.926c-0.284,0.484-0.344,1.207-0.178,2.167l0.667,3.86l-1.118,0.193l-1.81-10.481l1.118-0.193
			l0.548,3.173c0.065,0.381,0.103,0.701,0.11,0.959l0.066-0.012c0.159-0.393,0.424-0.726,0.795-1
			c0.372-0.275,0.817-0.457,1.338-0.547c0.903-0.156,1.617-0.058,2.143,0.292s0.869,0.994,1.03,1.928l0.831,4.816L45.986,14.687z"/>
	</g>
	<g>
		<path style="fill:#222734;" d="M52.163,9.917c-0.146-1.199-0.106-2.342,0.117-3.43c0.223-1.087,0.617-2.065,1.182-2.933l1.1-0.133
			c-0.545,0.952-0.919,1.971-1.119,3.056c-0.201,1.084-0.234,2.179-0.1,3.283c0.132,1.085,0.428,2.126,0.889,3.122
			s1.058,1.882,1.79,2.661l-1.085,0.132c-0.759-0.689-1.375-1.525-1.848-2.51C52.615,12.181,52.307,11.098,52.163,9.917z"/>
	</g>
	<g>
		<path style="fill:#222734;" d="M65.708,7.393c0.136,1.594-0.16,2.881-0.89,3.862c-0.729,0.981-1.81,1.533-3.245,1.655
			c-1.467,0.124-2.636-0.229-3.509-1.057c-0.874-0.829-1.38-2.062-1.52-3.696c-0.138-1.621,0.155-2.911,0.879-3.872
			c0.724-0.96,1.82-1.502,3.292-1.627c1.431-0.122,2.586,0.236,3.467,1.077C65.063,4.576,65.572,5.794,65.708,7.393z M57.772,8.068
			c0.115,1.349,0.489,2.347,1.123,2.995s1.498,0.926,2.592,0.833c1.104-0.094,1.907-0.513,2.411-1.255
			c0.504-0.743,0.699-1.791,0.584-3.144c-0.114-1.34-0.48-2.333-1.101-2.978c-0.62-0.644-1.479-0.92-2.578-0.826
			c-1.104,0.094-1.912,0.514-2.428,1.259C57.86,5.699,57.659,6.737,57.772,8.068z"/>
	</g>
	<g>
		<path style="fill:#222734;" d="M71.724,4.521c0.333-0.014,0.632,0,0.898,0.044L72.51,5.624c-0.313-0.055-0.587-0.078-0.824-0.067
			c-0.605,0.025-1.113,0.293-1.522,0.803c-0.409,0.511-0.598,1.131-0.566,1.865l0.171,4.016l-1.134,0.048l-0.318-7.486l0.936-0.04
			l0.188,1.381l0.055-0.002c0.257-0.5,0.575-0.89,0.956-1.17C70.832,4.691,71.255,4.541,71.724,4.521z"/>
	</g>
	<g>
		<path style="fill:#222734;" d="M80.682,4.508l0.008,0.718l-1.384,0.179c0.129,0.158,0.244,0.366,0.348,0.622
			c0.103,0.256,0.156,0.546,0.16,0.87c0.008,0.734-0.237,1.322-0.733,1.765s-1.182,0.669-2.057,0.679
			c-0.224,0.002-0.434-0.013-0.63-0.048c-0.48,0.261-0.718,0.584-0.714,0.971c0.002,0.205,0.088,0.355,0.258,0.452
			c0.169,0.097,0.46,0.142,0.87,0.138l1.326-0.014c0.811-0.009,1.436,0.155,1.874,0.492c0.439,0.337,0.662,0.832,0.669,1.483
			c0.009,0.83-0.316,1.465-0.978,1.908c-0.66,0.442-1.628,0.67-2.904,0.684c-0.979,0.011-1.736-0.163-2.271-0.522
			c-0.534-0.359-0.806-0.871-0.813-1.536c-0.005-0.456,0.137-0.852,0.425-1.188c0.288-0.336,0.696-0.566,1.223-0.69
			c-0.192-0.084-0.354-0.217-0.485-0.398s-0.199-0.392-0.202-0.633c-0.003-0.273,0.067-0.514,0.211-0.72
			c0.144-0.207,0.371-0.408,0.684-0.603c-0.389-0.155-0.707-0.423-0.955-0.803c-0.248-0.38-0.375-0.816-0.38-1.309
			c-0.009-0.82,0.23-1.455,0.718-1.905c0.486-0.45,1.182-0.679,2.084-0.689c0.392-0.004,0.745,0.037,1.061,0.125L80.682,4.508z
			 M74.804,13.322c0.005,0.406,0.179,0.711,0.522,0.917c0.344,0.206,0.835,0.305,1.473,0.298c0.953-0.01,1.656-0.161,2.111-0.45
			s0.68-0.678,0.674-1.166c-0.004-0.406-0.132-0.686-0.384-0.84c-0.253-0.154-0.726-0.228-1.418-0.22l-1.36,0.015
			c-0.516,0.005-0.915,0.133-1.199,0.382C74.939,12.507,74.799,12.862,74.804,13.322z M75.35,6.966
			c0.006,0.524,0.158,0.918,0.457,1.185c0.3,0.266,0.713,0.396,1.242,0.39c1.107-0.012,1.655-0.556,1.644-1.631
			c-0.013-1.125-0.579-1.682-1.7-1.67c-0.533,0.005-0.941,0.154-1.226,0.444S75.344,6.401,75.35,6.966z"/>
	</g>
	<g>
		<path style="fill:#222734;" d="M87.178,12.174l-0.194-1.072L86.929,11.1c-0.388,0.458-0.769,0.765-1.145,0.921
			c-0.376,0.155-0.842,0.225-1.398,0.208c-0.742-0.022-1.318-0.23-1.729-0.625c-0.41-0.395-0.604-0.945-0.583-1.652
			c0.044-1.512,1.277-2.27,3.697-2.272l1.272-0.003l0.013-0.465c0.018-0.588-0.097-1.025-0.342-1.313
			c-0.244-0.288-0.644-0.44-1.199-0.456c-0.624-0.018-1.336,0.153-2.135,0.512l-0.323-0.877c0.375-0.19,0.784-0.335,1.226-0.437
			c0.444-0.101,0.886-0.145,1.328-0.132c0.893,0.026,1.548,0.244,1.967,0.653c0.419,0.408,0.616,1.05,0.591,1.925l-0.149,5.111
			L87.178,12.174z M84.639,11.299c0.706,0.021,1.266-0.157,1.68-0.532c0.414-0.375,0.632-0.911,0.652-1.608l0.02-0.676l-1.135,0.015
			c-0.903,0.005-1.558,0.126-1.964,0.363c-0.404,0.237-0.615,0.617-0.63,1.141c-0.012,0.41,0.103,0.726,0.345,0.948
			C83.848,11.169,84.193,11.286,84.639,11.299z"/>
	</g>
	<g>
		<path style="fill:#222734;" d="M95.81,12.685L96.15,7.85c0.043-0.609-0.063-1.073-0.32-1.394c-0.257-0.319-0.68-0.5-1.271-0.542
			c-0.782-0.055-1.37,0.116-1.764,0.514c-0.393,0.397-0.624,1.082-0.692,2.056l-0.276,3.921l-1.132-0.08l0.526-7.474l0.92,0.064
			l0.112,1.036l0.055,0.004c0.258-0.353,0.604-0.614,1.035-0.787c0.433-0.173,0.906-0.241,1.42-0.205
			c0.899,0.063,1.562,0.328,1.986,0.794c0.424,0.466,0.602,1.177,0.535,2.131l-0.344,4.876L95.81,12.685z"/>
	</g>
	<g>
		<path style="fill:#222734;" d="M100.499,13.124l-1.129-0.113l0.749-7.455l1.129,0.113L100.499,13.124z M100.227,3.526
			c0.026-0.259,0.108-0.441,0.248-0.549c0.139-0.107,0.304-0.151,0.494-0.133c0.182,0.019,0.332,0.096,0.451,0.231
			c0.118,0.135,0.166,0.33,0.14,0.584c-0.025,0.254-0.11,0.437-0.254,0.548c-0.144,0.112-0.307,0.158-0.488,0.14
			c-0.19-0.019-0.343-0.097-0.457-0.234C100.245,3.976,100.201,3.78,100.227,3.526z"/>
	</g>
	<g>
		<path style="fill:#222734;" d="M105.858,13.885c-1.076-0.136-1.867-0.571-2.374-1.308s-0.685-1.711-0.532-2.923
			c0.156-1.243,0.576-2.167,1.262-2.77c0.684-0.604,1.58-0.835,2.688-0.696c0.357,0.045,0.709,0.128,1.057,0.25
			c0.349,0.122,0.617,0.247,0.808,0.377l-0.467,0.913c-0.236-0.13-0.497-0.247-0.782-0.35s-0.543-0.168-0.768-0.196
			c-1.512-0.189-2.387,0.679-2.629,2.604c-0.115,0.913-0.019,1.638,0.289,2.172c0.307,0.535,0.822,0.848,1.545,0.938
			c0.619,0.078,1.272,0.024,1.957-0.16l-0.125,0.997C107.257,13.93,106.613,13.98,105.858,13.885z"/>
	</g>
	<g>
		<path style="fill:#222734;" d="M113.612,12.235c0.109-0.582,0.362-1.068,0.759-1.457c0.395-0.39,1.038-0.737,1.931-1.042
			c-0.301-0.497-0.498-0.868-0.593-1.113c-0.097-0.245-0.162-0.494-0.197-0.747c-0.036-0.252-0.03-0.506,0.018-0.762
			c0.127-0.672,0.445-1.154,0.955-1.448c0.509-0.293,1.156-0.366,1.94-0.218c0.725,0.136,1.261,0.431,1.606,0.883
			c0.347,0.452,0.456,1.012,0.331,1.68c-0.091,0.479-0.326,0.893-0.707,1.24c-0.38,0.349-0.961,0.664-1.743,0.948l2.239,3.142
			c0.303-0.23,0.565-0.519,0.786-0.864c0.22-0.346,0.424-0.73,0.61-1.154l1.128,0.213c-0.545,1.223-1.188,2.108-1.926,2.656
			l1.641,2.333l-1.538-0.29l-1.019-1.43c-0.618,0.375-1.219,0.614-1.805,0.718c-0.584,0.103-1.213,0.092-1.885-0.035
			c-0.963-0.182-1.664-0.56-2.105-1.134C113.598,13.778,113.455,13.072,113.612,12.235z M116.359,14.491
			c1.08,0.203,2.04,0.027,2.882-0.528l-2.399-3.401c-0.554,0.211-0.952,0.396-1.196,0.557c-0.244,0.161-0.436,0.346-0.578,0.556
			c-0.142,0.21-0.239,0.461-0.294,0.752c-0.099,0.523-0.003,0.972,0.286,1.344S115.782,14.382,116.359,14.491z M116.637,7.294
			c-0.059,0.309-0.033,0.619,0.075,0.929c0.108,0.311,0.32,0.7,0.636,1.167c0.641-0.227,1.102-0.461,1.382-0.703
			c0.279-0.242,0.454-0.549,0.524-0.921c0.064-0.345,0.002-0.646-0.188-0.907c-0.19-0.261-0.478-0.428-0.862-0.501
			c-0.398-0.074-0.742-0.027-1.031,0.141S116.705,6.932,116.637,7.294z"/>
	</g>
	<g>
		<path style="fill:#222734;" d="M135.712,12.528c-0.253,0.98-0.781,1.647-1.585,2.002c-0.805,0.355-1.829,0.373-3.074,0.053
			l-1.139-0.294l-0.98,3.807l-1.125-0.29l2.492-9.678l2.51,0.646C135.229,9.397,136.195,10.648,135.712,12.528z M130.163,13.323
			l1.013,0.261c0.998,0.257,1.761,0.281,2.289,0.074s0.885-0.666,1.068-1.377c0.164-0.64,0.077-1.171-0.261-1.592
			c-0.339-0.422-0.951-0.746-1.839-0.975l-1.258-0.324L130.163,13.323z"/>
	</g>
	<g>
		<path style="fill:#222734;" d="M140.304,21.274l0.091-1.086l-0.052-0.016c-0.494,0.341-0.941,0.539-1.346,0.591
			c-0.403,0.053-0.872-0.002-1.403-0.162c-0.712-0.214-1.214-0.565-1.508-1.053c-0.293-0.488-0.338-1.07-0.135-1.747
			c0.437-1.449,1.823-1.859,4.162-1.232l1.229,0.328l0.135-0.445c0.169-0.563,0.173-1.016,0.012-1.356
			c-0.162-0.341-0.508-0.592-1.04-0.752c-0.598-0.181-1.33-0.2-2.195-0.062l-0.084-0.932c0.412-0.086,0.844-0.119,1.298-0.103
			c0.455,0.019,0.893,0.091,1.316,0.218c0.855,0.258,1.432,0.639,1.729,1.143c0.298,0.503,0.321,1.174,0.069,2.012l-1.474,4.896
			L140.304,21.274z M138.079,19.77c0.677,0.203,1.264,0.178,1.761-0.077c0.498-0.255,0.848-0.716,1.049-1.384l0.195-0.647
			l-1.101-0.281c-0.873-0.229-1.536-0.283-1.99-0.16c-0.453,0.122-0.756,0.436-0.906,0.937c-0.118,0.394-0.09,0.729,0.086,1.004
			C137.35,19.438,137.652,19.641,138.079,19.77z"/>
	</g>
	<g>
		<path style="fill:#222734;" d="M144.481,22.632l-1.077-0.357l2.36-7.11l1.077,0.357L144.481,22.632z M146.313,13.208
			c0.082-0.246,0.203-0.407,0.361-0.481c0.16-0.074,0.33-0.082,0.512-0.021c0.174,0.058,0.303,0.166,0.389,0.324
			c0.088,0.158,0.091,0.358,0.01,0.601c-0.08,0.242-0.203,0.401-0.367,0.479c-0.165,0.077-0.334,0.087-0.508,0.029
			c-0.182-0.061-0.313-0.169-0.395-0.329C146.233,13.65,146.233,13.45,146.313,13.208z"/>
	</g>
	<g>
		<path style="fill:#222734;" d="M152.01,24.235l-0.058-0.021c-0.755,0.535-1.621,0.623-2.602,0.265
			c-0.92-0.337-1.521-0.913-1.801-1.729c-0.282-0.816-0.211-1.805,0.214-2.964c0.424-1.16,1.011-1.968,1.76-2.421
			c0.748-0.454,1.58-0.514,2.496-0.179c0.954,0.349,1.56,0.964,1.814,1.843l0.084,0.031l0.141-0.523l0.155-0.504l1.048-2.863
			l1.065,0.39l-3.655,9.989l-0.866-0.317L152.01,24.235z M149.813,23.635c0.728,0.266,1.328,0.261,1.8-0.016
			c0.473-0.275,0.869-0.854,1.192-1.736l0.082-0.225c0.365-0.997,0.459-1.77,0.284-2.316c-0.177-0.547-0.629-0.954-1.355-1.221
			c-0.625-0.229-1.193-0.16-1.701,0.204c-0.51,0.364-0.927,0.989-1.251,1.876c-0.329,0.898-0.412,1.637-0.25,2.216
			C148.774,22.996,149.175,23.402,149.813,23.635z"/>
	</g>
	<g>
		<path style="fill:#222734;" d="M158.794,23.874c-0.448,1.111-1.03,2.081-1.744,2.908s-1.523,1.472-2.427,1.933l-1.015-0.408
			c0.908-0.559,1.714-1.259,2.418-2.104c0.703-0.844,1.26-1.772,1.669-2.787c0.416-1.031,0.668-2.097,0.755-3.196
			c0.087-1.101-0.01-2.181-0.289-3.242l1.026,0.414c0.324,0.99,0.451,2.04,0.382,3.15C159.5,21.651,159.242,22.761,158.794,23.874z"
			/>
	</g>
</g>
</svg>
