<?xml version="1.0" encoding="iso-8859-1"?>
<!-- Generator: Adobe Illustrator 17.0.0, SVG Export Plug-In . SVG Version: 6.00 Build 0)  -->
<!DOCTYPE svg PUBLIC "-//W3C//DTD SVG 1.1//EN" "http://www.w3.org/Graphics/SVG/1.1/DTD/svg11.dtd">
<svg version="1.1" id="Layer_1" xmlns="http://www.w3.org/2000/svg" xmlns:xlink="http://www.w3.org/1999/xlink" x="0px" y="0px"
	 width="29.018px" height="34.698px" viewBox="0 0 29.018 34.698" style="enable-background:new 0 0 29.018 34.698;"
	 xml:space="preserve">
<g>
	
		<circle style="fill:none;stroke:#3F76BB;stroke-width:1.199;stroke-linecap:round;stroke-linejoin:round;stroke-miterlimit:10;" cx="11.386" cy="11.387" r="10.787"/>
	<path style="fill:none;stroke:#3F76BB;stroke-width:1.199;stroke-linecap:round;stroke-linejoin:round;stroke-miterlimit:10;" d="
		M18.705,19.309l9.48,12.88c0.392,0.534,0.278,1.284-0.255,1.676c-0.214,0.158-0.463,0.233-0.71,0.233
		c-0.368,0-0.731-0.168-0.966-0.488l-9.479-12.879"/>
	<path style="fill:none;stroke:#3F76BB;stroke-width:0.599;stroke-linecap:round;stroke-linejoin:round;stroke-miterlimit:10;" d="
		M8.444,14.537c0,1.452,1.318,2.628,2.943,2.628s2.943-1.088,2.943-2.628c0-3.151-5.886-3.151-5.886-6.302
		c0-1.451,1.318-2.628,2.943-2.628s2.943,1.177,2.943,2.628"/>
	
		<line style="fill:none;stroke:#3F76BB;stroke-width:0.599;stroke-linecap:round;stroke-linejoin:round;stroke-miterlimit:10;" x1="11.387" y1="5.607" x2="11.387" y2="4.484"/>
	
		<line style="fill:none;stroke:#3F76BB;stroke-width:0.599;stroke-linecap:round;stroke-linejoin:round;stroke-miterlimit:10;" x1="11.387" y1="18.289" x2="11.387" y2="17.166"/>
</g>
</svg>
