<?xml version="1.0" encoding="iso-8859-1"?>
<!-- Generator: Adobe Illustrator 17.0.0, SVG Export Plug-In . SVG Version: 6.00 Build 0)  -->
<!DOCTYPE svg PUBLIC "-//W3C//DTD SVG 1.1//EN" "http://www.w3.org/Graphics/SVG/1.1/DTD/svg11.dtd">
<svg version="1.1" id="Layer_1" xmlns="http://www.w3.org/2000/svg" xmlns:xlink="http://www.w3.org/1999/xlink" x="0px" y="0px"
	 width="26.372px" height="33.673px" viewBox="0 0 26.372 33.673" style="enable-background:new 0 0 26.372 33.673;"
	 xml:space="preserve">
<g>
	<g>
		<path style="fill:#222734;" d="M4.938,8.016c-0.784,0.399-1.54,0.426-2.268,0.08c-0.729-0.345-1.34-1.005-1.837-1.979
			C0.295,5.061,0.017,4.179,0,3.472l0.999-0.509c0.032,0.444,0.113,0.904,0.243,1.38C1.371,4.82,1.544,5.269,1.759,5.691
			C2.11,6.382,2.506,6.835,2.945,7.05c0.439,0.217,0.894,0.205,1.36-0.033c0.31-0.156,0.53-0.347,0.664-0.571
			s0.211-0.524,0.229-0.899C5.218,5.171,5.181,4.634,5.09,3.933c-0.125-0.979-0.076-1.75,0.15-2.313s0.665-1.01,1.318-1.343
			c0.687-0.35,1.363-0.369,2.033-0.06c0.668,0.309,1.219,0.887,1.651,1.736c0.451,0.885,0.703,1.782,0.756,2.69L9.934,4.781
			C9.868,3.889,9.658,3.095,9.305,2.402C9.025,1.853,8.689,1.484,8.296,1.295S7.499,1.119,7.08,1.333
			C6.771,1.49,6.548,1.675,6.408,1.889C6.27,2.103,6.186,2.387,6.159,2.741C6.132,3.095,6.162,3.6,6.246,4.258
			c0.142,1.104,0.113,1.929-0.09,2.474C5.952,7.278,5.546,7.706,4.938,8.016z"/>
	</g>
	<g>
		<path style="fill:#222734;" d="M9.822,14.591c-1.067,0.595-2.049,0.79-2.948,0.587c-0.899-0.204-1.612-0.779-2.14-1.727
			c-0.326-0.586-0.479-1.182-0.457-1.788c0.021-0.607,0.221-1.177,0.597-1.71s0.908-0.992,1.597-1.375
			c1.067-0.595,2.047-0.791,2.94-0.59c0.892,0.203,1.602,0.777,2.13,1.725c0.51,0.916,0.611,1.813,0.303,2.691
			S10.861,14.012,9.822,14.591z M7.043,9.606c-0.836,0.466-1.38,0.987-1.631,1.566c-0.251,0.578-0.196,1.191,0.165,1.84
			c0.362,0.649,0.854,1.021,1.479,1.113c0.623,0.094,1.354-0.093,2.194-0.561c0.832-0.464,1.37-0.984,1.615-1.563
			c0.244-0.576,0.183-1.193-0.183-1.85C10.32,9.503,9.834,9.133,9.225,9.04C8.615,8.946,7.887,9.135,7.043,9.606z"/>
	</g>
	<g>
		<path style="fill:#222734;" d="M8.889,20.583c-0.561-0.928-0.708-1.819-0.444-2.674c0.264-0.854,0.918-1.596,1.964-2.228
			c1.073-0.647,2.058-0.89,2.956-0.726s1.634,0.724,2.21,1.68c0.187,0.309,0.34,0.637,0.459,0.984
			c0.12,0.348,0.188,0.637,0.204,0.867l-1.005,0.199c-0.044-0.266-0.113-0.543-0.21-0.832c-0.097-0.287-0.204-0.527-0.322-0.723
			c-0.786-1.304-2.011-1.454-3.673-0.451c-0.789,0.477-1.297,1-1.526,1.572s-0.156,1.171,0.221,1.795
			c0.323,0.535,0.769,1.014,1.338,1.436l-0.86,0.52C9.719,21.708,9.282,21.235,8.889,20.583z"/>
	</g>
	<g>
		<path style="fill:#222734;" d="M11.527,24.548l-0.609-0.957l6.321-4.023l0.609,0.957L11.527,24.548z M18.9,18.398
			c0.22-0.141,0.414-0.188,0.585-0.146c0.17,0.042,0.307,0.146,0.408,0.306c0.099,0.154,0.131,0.32,0.099,0.498
			s-0.157,0.334-0.372,0.472c-0.215,0.137-0.411,0.183-0.588,0.139c-0.178-0.044-0.314-0.144-0.412-0.297
			c-0.104-0.161-0.137-0.329-0.098-0.505C18.56,18.69,18.686,18.535,18.9,18.398z"/>
	</g>
	<g>
		<path style="fill:#222734;" d="M15.302,30.256l0.758-0.783l-0.03-0.045c-0.599-0.047-1.069-0.18-1.415-0.395
			c-0.346-0.215-0.674-0.553-0.984-1.015c-0.415-0.616-0.581-1.206-0.499-1.77c0.083-0.563,0.417-1.043,1.002-1.437
			c1.255-0.846,2.588-0.284,4,1.682l0.744,1.033l0.386-0.26c0.487-0.328,0.777-0.676,0.869-1.043
			c0.091-0.366-0.019-0.779-0.329-1.24c-0.35-0.519-0.902-0.998-1.66-1.438l0.525-0.774c0.373,0.194,0.729,0.442,1.069,0.743
			s0.634,0.636,0.88,1.002c0.499,0.741,0.704,1.4,0.616,1.979c-0.089,0.579-0.496,1.112-1.222,1.601l-4.242,2.855L15.302,30.256z
			 M14.533,27.683c0.395,0.587,0.865,0.938,1.411,1.056c0.547,0.119,1.109-0.017,1.688-0.406l0.563-0.377l-0.674-0.916
			c-0.531-0.73-1.01-1.191-1.438-1.384s-0.86-0.142-1.295,0.151c-0.34,0.229-0.53,0.506-0.569,0.832
			C14.179,26.964,14.284,27.313,14.533,27.683z"/>
	</g>
	<g>
		<path style="fill:#222734;" d="M17.705,33.673l-0.657-0.924l8.666-6.166l0.658,0.924L17.705,33.673z"/>
	</g>
</g>
</svg>
